<?xml version="1.0" standalone="no"?>
<!DOCTYPE svg PUBLIC "-//W3C//DTD SVG 20010904//EN"
 "http://www.w3.org/TR/2001/REC-SVG-20010904/DTD/svg10.dtd">
<svg version="1.0" xmlns="http://www.w3.org/2000/svg"
 width="540.000000pt" height="540.000000pt" viewBox="0 0 540.000000 540.000000"
 preserveAspectRatio="xMidYMid meet">
<metadata>
Created by potrace 1.11, written by Peter Selinger 2001-2013
</metadata>
<g transform="translate(0.000000,540.000000) scale(0.100000,-0.100000)"
fill="#000000" stroke="none">
<path d="M3095 4951 c-54 -22 -100 -30 -207 -36 -97 -6 -123 -4 -149 9 -38 19
-151 21 -230 5 -30 -7 -92 -13 -139 -14 -47 -1 -103 -7 -125 -13 -24 -7 -86
-9 -153 -7 -100 4 -114 3 -131 -14 -11 -11 -22 -17 -25 -13 -3 3 -6 0 -6 -6 0
-7 -10 -12 -21 -12 -12 0 -35 -15 -51 -35 -17 -19 -55 -46 -85 -60 -55 -25
-147 -109 -158 -144 -9 -28 -35 -34 -57 -14 -19 17 -20 17 -33 -2 -17 -24 -19
-26 -74 -71 -79 -63 -120 -77 -150 -50 -14 13 -16 10 -13 -27 3 -38 -1 -46
-37 -82 -23 -21 -41 -46 -41 -55 -1 -8 -11 -28 -24 -43 l-23 -29 -27 27 c-14
14 -33 42 -41 61 -8 20 -18 33 -23 30 -10 -6 -49 60 -62 102 -6 21 -8 11 -9
-38 -1 -59 4 -75 49 -165 27 -55 50 -106 50 -113 0 -9 -10 -12 -27 -10 -31 3
-30 11 -18 -121 3 -40 -1 -66 -14 -97 -14 -31 -20 -71 -22 -141 -1 -54 -6
-103 -11 -109 -10 -14 -13 -188 -3 -226 4 -16 14 -28 22 -28 10 0 13 -6 8 -17
-13 -34 -15 -58 -6 -88 26 -85 30 -109 19 -116 -6 -4 -7 -12 -2 -20 5 -8 11
-63 15 -124 4 -70 15 -145 32 -205 14 -52 40 -151 57 -220 34 -141 49 -162
126 -181 27 -7 52 -21 62 -36 9 -13 33 -45 53 -71 45 -59 65 -102 79 -172 6
-30 19 -69 30 -85 l20 -30 0 67 c0 37 4 78 9 92 6 13 13 70 16 125 3 56 10
112 16 125 24 52 228 103 263 65 8 -8 18 -45 24 -84 30 -200 56 -341 65 -353
5 -6 23 -16 40 -20 26 -7 33 -16 46 -57 15 -48 18 -50 59 -56 45 -6 58 -14 76
-51 12 -22 15 -23 115 -20 57 2 118 1 137 -3 29 -5 34 -10 34 -34 0 -19 11
-37 36 -59 23 -21 37 -43 41 -67 5 -33 4 -35 -21 -35 -23 0 -26 -3 -21 -20 4
-12 -2 -38 -15 -65 -23 -48 -28 -94 -15 -139 6 -22 5 -27 -5 -21 -9 5 -10 1
-5 -16 10 -38 29 -73 42 -82 7 -4 13 -14 13 -22 0 -7 7 -21 17 -30 10 -11 17
-35 17 -68 1 -29 7 -62 14 -74 7 -12 12 -28 12 -35 0 -7 9 -19 20 -26 11 -7
20 -19 20 -27 0 -16 78 -60 88 -50 4 4 -1 11 -10 16 -13 7 -14 16 -7 50 5 22
7 44 5 48 -3 4 6 20 20 36 29 34 29 34 7 51 -16 12 -16 15 -3 24 17 11 47 4
70 -15 8 -7 47 -20 85 -30 39 -9 87 -24 108 -33 35 -14 39 -14 55 2 15 14 15
18 2 26 -23 14 -7 21 77 29 82 8 127 -3 140 -35 7 -19 -24 -54 -49 -54 -10 0
-18 -5 -18 -10 0 -6 8 -10 18 -8 13 2 18 -5 20 -31 3 -30 1 -33 -17 -28 -23 6
-51 -15 -51 -38 0 -24 12 -45 25 -45 7 0 16 -14 20 -31 l7 -30 94 3 c87 4 98
6 124 31 19 18 26 33 23 47 -4 15 0 20 15 20 11 0 23 7 26 16 9 22 8 24 -10
24 -12 0 -14 7 -9 31 7 30 6 31 -19 27 -14 -3 -26 -1 -26 5 0 12 56 67 69 67
17 0 19 27 5 55 -20 39 -18 54 11 65 29 11 31 22 10 40 -8 7 -15 8 -15 3 0 -6
-10 -8 -23 -6 -14 3 -29 -2 -36 -11 -17 -20 -124 -22 -138 -3 -15 19 -22 56
-12 63 5 3 9 22 9 43 0 30 6 42 25 55 33 22 64 20 86 -5 18 -21 19 -21 25 -3
14 39 35 54 58 42 11 -6 25 -17 29 -24 11 -20 27 -17 27 4 0 10 9 25 20 35 19
16 20 16 34 -6 21 -33 28 -65 16 -72 -5 -3 -10 -20 -10 -37 0 -27 -3 -30 -24
-24 -16 4 -26 1 -30 -9 -6 -18 12 -28 83 -46 51 -13 54 -12 71 9 27 32 32 27
30 -25 -4 -70 -1 -85 11 -77 6 3 9 15 6 25 -8 29 9 23 37 -14 23 -30 24 -36
14 -82 -6 -28 -14 -54 -18 -60 -10 -13 -3 -86 9 -98 12 -12 60 40 61 65 0 28
11 48 26 48 10 0 14 15 14 54 0 30 4 57 9 60 8 5 7 49 -4 92 -3 14 1 24 11 28
8 3 12 11 9 17 -11 17 16 99 36 112 15 9 17 21 13 77 -4 45 -3 61 5 50 7 -10
9 -3 6 25 -5 75 -17 114 -34 118 -12 4 -12 5 4 6 17 1 15 5 -12 30 -18 16 -35
41 -39 56 -4 15 -14 29 -23 33 -23 8 -31 23 -30 57 0 17 3 24 6 17 8 -19 23
-14 23 9 0 11 5 29 11 40 9 17 13 18 26 7 14 -12 15 -9 10 22 -4 19 -3 40 1
45 16 22 122 65 210 85 94 22 112 34 112 79 0 27 13 33 44 21 21 -8 28 -6 41
13 8 12 15 41 15 65 0 35 6 52 31 80 34 38 34 30 10 185 -6 38 -8 80 -5 94 l7
26 13 -24 13 -24 1 28 c0 15 -4 27 -10 27 -5 0 -10 8 -10 19 0 10 -7 35 -15
54 -8 20 -15 52 -15 70 0 30 4 35 29 40 19 4 31 14 35 30 7 28 -10 177 -22
188 -4 5 -43 3 -86 -3 -62 -8 -84 -8 -100 2 -15 9 -21 10 -24 1 -2 -6 -21 -11
-42 -11 -22 0 -61 -5 -88 -10 -53 -12 -74 -6 -131 35 -18 14 -37 23 -41 20 -4
-3 -29 3 -54 11 -150 51 -465 -46 -623 -192 -14 -13 -22 -24 -18 -24 4 0 2 -7
-5 -15 -7 -9 -29 -15 -51 -15 -21 0 -41 -4 -44 -10 -8 -13 -72 -13 -80 0 -3 5
-12 7 -20 4 -7 -3 -18 4 -25 15 -6 12 -17 21 -25 21 -8 0 -15 4 -15 10 0 5 -6
7 -14 4 -9 -3 -17 3 -21 15 -3 12 -15 21 -26 21 -11 0 -32 9 -47 20 -32 24
-155 31 -292 19 -47 -5 -105 -10 -130 -13 -101 -9 -216 -31 -228 -43 -7 -6
-19 -10 -27 -7 -7 3 -19 -4 -25 -16 -7 -12 -44 -56 -84 -96 l-71 -75 -97 -14
c-54 -8 -114 -24 -135 -34 -80 -41 -177 -34 -188 13 -3 11 2 66 11 121 25 154
28 243 9 288 -8 21 -19 35 -24 33 -12 -8 -55 110 -47 129 3 9 -3 25 -14 37
-21 23 -24 39 -21 123 2 57 30 195 43 210 4 5 8 20 8 32 0 15 17 40 43 66 23
23 56 58 72 77 17 19 71 71 120 114 50 44 92 82 95 85 11 13 109 61 123 61 9
0 22 6 30 14 11 11 30 12 98 5 46 -5 90 -11 97 -14 7 -3 23 4 34 15 12 11 29
20 38 20 20 0 41 24 58 64 11 24 17 27 40 23 69 -14 89 -22 122 -47 19 -15 45
-27 58 -28 25 -1 25 -2 12 32 -7 21 -6 27 8 34 26 14 98 2 121 -19 11 -10 26
-19 34 -19 8 0 22 -9 32 -20 10 -11 31 -20 46 -20 15 0 30 -4 33 -9 3 -5 36
-14 72 -20 55 -10 69 -10 83 2 12 11 41 14 111 13 52 -1 101 2 107 7 7 5 91
12 186 15 l172 5 94 -32 c52 -18 104 -30 115 -27 12 2 37 -4 56 -14 19 -11 49
-26 66 -34 31 -15 87 -71 137 -137 75 -99 125 -263 132 -430 2 -58 10 -133 19
-165 8 -32 16 -83 18 -111 3 -52 10 -64 23 -42 4 6 13 59 20 118 22 178 -1
457 -47 557 -10 22 -18 63 -18 90 0 32 -7 59 -20 79 -11 17 -20 40 -20 52 0
40 -53 125 -109 172 -80 68 -261 249 -261 261 0 5 -7 10 -15 10 -8 0 -15 4
-15 10 0 5 -21 27 -47 47 -37 30 -47 43 -45 62 3 21 1 23 -20 17 -42 -14 -61
-7 -102 33 -32 31 -50 41 -75 41 -43 0 -68 14 -86 50 -15 30 -29 32 -108 15
-31 -6 -132 38 -141 62 -6 15 47 31 117 35 26 2 47 4 47 6 0 2 -19 12 -42 22
-46 21 -71 23 -103 11z m-1975 -1426 c0 -7 4 -15 10 -17 15 -5 27 -59 20 -98
l-6 -35 -12 37 c-7 20 -19 39 -27 42 -15 5 -22 76 -9 89 10 9 24 -2 24 -18z
m-70 -95 c0 -5 -2 -10 -4 -10 -3 0 -8 5 -11 10 -3 6 -1 10 4 10 6 0 11 -4 11
-10z m2704 -882 c3 -7 7 -25 10 -40 6 -25 11 -28 47 -28 40 0 42 -2 53 -52 6
-25 11 -28 47 -28 43 0 50 -8 53 -62 1 -29 -2 -32 -34 -39 -39 -9 -60 7 -60
48 0 23 -29 38 -65 31 -19 -3 -31 13 -40 56 -6 27 -8 28 -46 23 -46 -6 -59 9
-59 67 0 36 0 36 45 36 28 0 47 -5 49 -12z m-180 -58 c10 -32 15 -35 56 -40
43 -5 45 -7 50 -40 5 -33 7 -35 50 -40 43 -5 45 -7 51 -42 8 -50 -1 -60 -47
-56 -35 3 -39 6 -47 41 -8 34 -11 37 -46 37 -42 0 -61 14 -61 46 0 28 -14 37
-59 38 -34 1 -36 3 -42 41 -4 22 -5 44 -2 48 3 4 23 7 45 5 36 -3 42 -7 52
-38z m-372 -20 c27 -22 42 -47 58 -94 22 -66 117 -209 133 -199 4 3 5 23 2 44
-4 24 -3 39 4 39 16 0 41 -42 41 -69 0 -14 9 -35 21 -47 24 -25 61 -162 57
-208 -4 -39 -37 -47 -67 -17 -27 27 -72 27 -89 0 -11 -18 -11 -24 4 -40 15
-17 15 -19 0 -25 -9 -3 -27 -7 -40 -8 -13 0 -22 -3 -20 -5 12 -12 -40 -26 -81
-23 -42 4 -47 8 -65 43 -11 21 -29 43 -39 49 -25 13 -101 13 -101 0 0 -5 -8
-10 -19 -10 -10 0 -24 -6 -30 -14 -7 -8 -26 -19 -42 -25 -25 -9 -33 -7 -49 9
-37 37 -22 92 43 171 24 30 40 60 43 85 3 22 16 64 29 94 13 30 26 78 30 105
11 85 34 150 58 162 41 20 81 15 119 -17z m-868 -132 c18 -70 21 -73 58 -73
44 0 55 -10 60 -50 3 -28 6 -30 46 -30 48 0 62 -13 62 -62 0 -30 -3 -33 -29
-33 -16 0 -36 -3 -44 -6 -12 -4 -18 5 -24 38 -9 43 -9 43 -53 44 -47 1 -47 1
-66 72 -2 7 -19 12 -42 12 -48 0 -62 14 -62 62 l0 38 45 0 c28 0 47 -5 49 -12z
m-186 -56 c14 -41 15 -42 58 -42 39 0 44 -3 50 -27 11 -51 13 -53 53 -53 45 0
61 -18 61 -68 0 -27 -4 -30 -37 -35 -44 -5 -63 6 -63 37 0 36 -15 49 -48 43
-34 -7 -55 11 -66 56 -6 24 -11 27 -51 27 -43 0 -44 1 -55 41 -13 45 -8 55 30
61 46 7 55 2 68 -40z m1452 -641 c0 -34 -102 -57 -114 -26 -4 11 -14 14 -31
10 -14 -3 -37 -7 -52 -10 l-28 -5 29 16 c20 11 25 18 16 24 -6 4 31 8 84 9 88
1 96 -1 96 -18z m-730 -71 c0 -13 -7 -20 -18 -20 -30 0 -34 13 -10 27 30 16
28 16 28 -7z m-64 -16 c-3 -9 -6 -20 -6 -25 0 -15 -17 -10 -24 7 -8 20 1 34
21 34 10 0 13 -6 9 -16z m72 -99 c12 -9 25 -30 30 -48 12 -45 42 -49 42 -5 0
41 8 53 39 61 34 8 54 -5 71 -47 17 -44 30 -46 30 -6 0 30 1 30 53 30 61 -1
80 -19 89 -87 6 -40 4 -43 -17 -43 -29 0 -75 -20 -75 -32 0 -12 -38 -10 -46 3
-4 6 -17 8 -33 3 -40 -11 -83 -5 -104 13 -17 16 -19 15 -42 -11 -30 -35 -48
-30 -74 22 -17 33 -24 39 -45 35 -29 -6 -47 21 -27 40 10 9 15 8 22 -5 20 -36
37 -21 31 28 -3 33 -1 49 9 55 19 12 21 11 47 -6z m902 -165 c0 -5 -10 -10
-22 -9 -22 0 -22 1 -3 9 11 5 21 9 23 9 1 1 2 -3 2 -9z"/>
<path d="M1130 2360 c-8 -5 -24 -7 -35 -4 -15 4 -34 -6 -64 -33 -40 -36 -43
-43 -52 -112 -12 -83 -6 -133 16 -151 8 -7 15 -23 15 -36 0 -13 3 -24 8 -24 4
0 15 -14 24 -31 24 -41 37 -29 27 25 -10 53 12 194 31 206 8 5 13 24 12 45 -1
24 4 38 14 42 9 3 12 12 8 25 -4 14 -2 18 5 14 6 -4 11 -3 11 3 0 5 3 16 6 25
7 18 -4 20 -26 6z"/>
<path d="M1247 2276 c-3 -8 -3 -17 1 -21 4 -3 7 -14 7 -23 0 -10 9 -18 23 -20
18 -3 22 1 22 24 0 38 -42 69 -53 40z"/>
<path d="M1340 2151 c0 -4 -20 -30 -45 -57 -39 -41 -46 -55 -49 -98 -2 -28 -7
-59 -11 -69 -10 -24 20 -66 56 -79 16 -5 29 -16 29 -24 0 -8 7 -14 16 -14 11
0 15 6 11 20 -4 14 2 24 16 32 l21 11 -23 8 c-25 10 -23 35 2 33 9 -1 15 2 12
6 -2 4 0 20 5 36 37 119 37 142 0 182 -21 22 -40 29 -40 13z m-60 -207 c0 -8
-4 -12 -10 -9 -5 3 -10 13 -10 21 0 8 5 12 10 9 6 -3 10 -13 10 -21z m40 -88
c-12 -12 -15 -8 -25 22 -7 23 -6 23 14 6 13 -12 17 -22 11 -28z"/>
<path d="M1422 1833 c2 -9 8 -18 15 -20 7 -3 9 3 6 16 -6 25 -26 28 -21 4z"/>
<path d="M1390 1825 c0 -8 5 -15 10 -15 6 0 10 7 10 15 0 8 -4 15 -10 15 -5 0
-10 -7 -10 -15z"/>
<path d="M1400 1791 c0 -5 5 -13 10 -16 6 -3 10 -2 10 4 0 5 -4 13 -10 16 -5
3 -10 2 -10 -4z"/>
<path d="M4076 1738 c-16 -48 -35 -226 -35 -330 -1 -73 2 -88 15 -88 12 0 14
8 8 45 -4 30 -3 45 5 45 6 0 11 7 11 15 0 8 5 15 10 15 6 0 10 -12 10 -27 0
-14 3 -23 6 -20 11 11 14 266 4 272 -6 3 -10 21 -10 40 0 34 -17 57 -24 33z"/>
<path d="M2130 1395 c0 -5 5 -17 10 -25 5 -8 10 -10 10 -5 0 6 -5 17 -10 25
-5 8 -10 11 -10 5z"/>
<path d="M3960 1125 c-16 -19 -5 -65 15 -65 17 0 39 46 31 67 -7 17 -31 17
-46 -2z"/>
<path d="M2200 1100 c0 -5 7 -10 15 -10 8 0 15 5 15 10 0 6 -7 10 -15 10 -8 0
-15 -4 -15 -10z"/>
<path d="M2260 1041 c0 -5 9 -11 20 -14 24 -6 27 8 4 17 -21 8 -24 8 -24 -3z"/>
<path d="M2563 986 c4 -10 7 -20 7 -22 0 -3 3 -3 8 -1 4 3 6 -14 4 -36 -3 -40
-2 -43 42 -71 25 -16 46 -33 46 -38 0 -5 -4 -6 -10 -3 -5 3 -10 2 -10 -3 0 -9
97 -21 105 -14 7 8 -47 89 -107 160 -31 37 -96 58 -85 28z"/>
<path d="M2290 946 c-5 -13 -15 -26 -22 -29 -9 -3 -5 -11 12 -25 46 -39 61
-28 48 36 -10 47 -24 54 -38 18z"/>
<path d="M3430 960 c0 -5 7 -10 16 -10 8 0 12 5 9 10 -3 6 -10 10 -16 10 -5 0
-9 -4 -9 -10z"/>
<path d="M3752 948 c6 -18 28 -21 28 -4 0 9 -7 16 -16 16 -9 0 -14 -5 -12 -12z"/>
<path d="M3126 925 c4 -8 8 -15 10 -15 2 0 4 7 4 15 0 8 -4 15 -10 15 -5 0 -7
-7 -4 -15z"/>
<path d="M2770 760 c0 -5 5 -10 11 -10 5 0 7 5 4 10 -3 6 -8 10 -11 10 -2 0
-4 -4 -4 -10z"/>
<path d="M2488 753 c-19 -5 -25 -32 -8 -34 6 -1 14 -2 19 -3 5 0 13 -4 17 -8
14 -15 34 -8 34 12 0 16 -30 43 -42 39 -2 -1 -11 -3 -20 -6z"/>
<path d="M3491 723 c1 -5 1 -19 0 -32 -1 -21 -4 -23 -34 -17 -26 5 -38 2 -52
-14 -10 -11 -22 -17 -26 -14 -5 3 -16 -2 -25 -10 -17 -18 -40 -21 -48 -7 -7
10 -73 -5 -92 -20 -6 -5 -25 -6 -43 -3 -19 4 -37 2 -46 -6 -8 -7 -26 -10 -39
-8 -15 3 -37 -3 -53 -13 -34 -23 -53 -24 -53 -4 0 8 -7 15 -15 15 -8 0 -19 8
-24 19 -12 21 -45 33 -58 20 -5 -5 -25 -4 -47 2 -32 9 -41 8 -54 -5 -13 -12
-13 -18 -3 -30 8 -9 11 -26 7 -40 -4 -15 0 -28 9 -36 8 -7 12 -16 9 -22 -3 -5
-11 -5 -19 2 -7 6 -20 8 -29 4 -9 -3 -16 -2 -16 3 0 20 -57 73 -72 68 -19 -8
-12 -45 8 -45 8 0 19 -12 24 -26 6 -16 16 -24 24 -21 8 3 19 -5 27 -20 20 -37
67 -73 86 -66 9 4 19 -1 25 -10 5 -10 16 -17 24 -17 10 0 15 -8 14 -22 -4 -41
0 -46 45 -57 67 -17 60 -26 -27 -34 -10 -1 -18 -7 -18 -14 0 -16 -66 -18 -75
-3 -3 6 -17 10 -30 10 -29 0 -24 -26 6 -35 10 -4 19 -12 19 -20 0 -7 13 -24
28 -37 29 -24 38 -57 18 -70 -7 -5 -6 -8 3 -8 8 0 24 -8 35 -19 12 -10 42 -23
67 -29 26 -7 55 -15 65 -18 17 -6 17 -5 -1 9 -27 21 -12 34 17 15 22 -14 135
-17 156 -4 5 3 18 -4 30 -14 24 -23 67 -26 75 -6 3 7 21 16 40 20 19 4 41 13
47 21 7 9 41 29 75 45 39 18 65 38 68 50 3 11 14 23 26 28 11 4 34 29 51 55
16 26 35 47 41 47 8 0 8 4 -1 15 -10 12 -16 13 -26 4 -12 -9 -14 -4 -14 30 0
28 5 44 15 47 9 4 15 19 15 35 0 19 5 29 15 29 12 0 15 13 15 55 0 43 -5 58
-22 75 -12 11 -25 20 -30 20 -4 0 -8 15 -8 34 0 41 -16 59 -75 86 -48 22 -56
24 -54 13z m-591 -133 c0 -5 -2 -10 -4 -10 -3 0 -8 5 -11 10 -3 6 -1 10 4 10
6 0 11 -4 11 -10z m30 -24 c0 -2 -7 -6 -15 -10 -8 -3 -15 -1 -15 4 0 6 7 10
15 10 8 0 15 -2 15 -4z m-80 -46 c8 -5 12 -12 9 -15 -8 -8 -39 5 -39 16 0 11
11 11 30 -1z m750 -221 c0 -5 -4 -9 -10 -9 -5 0 -10 7 -10 16 0 8 5 12 10 9 6
-3 10 -10 10 -16z m-650 -205 c0 -8 -4 -12 -10 -9 -5 3 -10 13 -10 21 0 8 5
12 10 9 6 -3 10 -13 10 -21z"/>
<path d="M2860 289 c0 -5 5 -7 10 -4 6 3 10 8 10 11 0 2 -4 4 -10 4 -5 0 -10
-5 -10 -11z"/>
<path d="M2845 250 c-3 -5 1 -10 10 -10 9 0 13 5 10 10 -3 6 -8 10 -10 10 -2
0 -7 -4 -10 -10z"/>
</g>
</svg>
